<svg xmlns="http://www.w3.org/2000/svg" width="32" height="32"><title>UDT logo</title><g fill="#ff0" stroke="none" stroke-linecap="square" stroke-width="2" color="#000"><path fill="#a44d83" style="marker:none" d="M13 1h6v5h-6zM1 1v15a9 9 0 0 0 9 9h3v-6h-3a3 3 0 0 1-3-3V1z" overflow="visible"/><path fill="#5c7293" style="marker:none" d="M13 7v6h9a3 3 0 0 1 3 3 3 3 0 0 1-3 3h-3v6h3a9 9 0 0 0 9-9 9 9 0 0 0-9-9z" overflow="visible"/><path fill="#7c4e8b" style="marker:none" d="M13 26v5H7v-5.473c.954.305 1.95.464 2.976.473zm6 0v5h6v-5.473c-.954.305-1.95.464-2.976.473z" overflow="visible"/></g></svg>
